<svg xml:space="preserve" style="max-height: 500px" viewBox="25.963396778916547 56.8062 207.33089311859445 74.8638" y="0px" x="0px" xmlns:xlink="http://www.w3.org/1999/xlink" xmlns="http://www.w3.org/2000/svg" id="Layer_1" version="1.0" width="207.33089311859445" height="74.8638">
<style type="text/css">
	.st0{fill:#FF6F00;}
</style>
<path d="M130.6,108.2H130c-0.3-0.3-0.3-0.3-0.3-0.7v-26c0-0.3,0-0.3,0.3-0.7c0.2-0.2,0.4-0.3,0.7-0.3h15.2&#10;&#9;c0.3,0,0.5,0.2,0.7,0.3c0.3,0.3,0.3,0.3,0.3,0.7v0.7c0,0.3,0,0.3-0.3,0.7c-0.2,0.2-0.4,0.3-0.7,0.3h-13.5v10.5h12.9&#10;&#9;c0.3,0,0.5,0.1,0.7,0.3v1.7c-0.2,0.2-0.4,0.3-0.7,0.3h-12.9v11.5c0,0.3-0.3,0.3-0.3,0.7L130.6,108.2L130.6,108.2z" class="st0"/>
<path d="M151.4,83.5h-0.7v-3c0.3,0,0.3-0.3,0.7-0.3h1.7c0.3,0,0.3,0.3,0.7,0.3c0,0.3,0.3,0.3,0.3,0.7v1.6&#10;&#9;c-0.2,0.2-0.3,0.4-0.3,0.7L151.4,83.5L151.4,83.5z M152.1,108.2h-0.7c-0.3-0.3-0.3-0.3-0.3-0.7V88.8c0-0.3,0-0.7,0.3-0.7&#10;&#9;c0-0.3,0.3-0.3,0.7-0.3h0.7c0.3,0,0.5,0.1,0.7,0.3v20.1L152.1,108.2L152.1,108.2z" class="st0"/>
<path d="M176.5,88.4V89l-7.2,18.1c-0.3,0.3-0.3,0.7-0.6,1h-1.7h0h-1c0-0.3-0.3-0.7-0.3-1L158.4,89&#10;&#9;c-0.3-0.3-0.3-0.3-0.3-0.7l0.3-0.3c0.3-0.3,0.3-0.3,0.6-0.3h0.7c0.3,0,0.7,0,0.7,0.3c0.2,0,0.3,0.1,0.3,0.3c0,0,0,0,0,0l6.6,17.2&#10;&#9;l6.6-17.2c0.2,0,0.3-0.1,0.3-0.3c0,0,0,0,0,0c0.3-0.3,0.3-0.3,0.7-0.3h1" class="st0"/>
<path d="M181.8,97h12.5v-0.3c0.1-1.3-0.1-2.5-0.7-3.7c-0.6-0.9-1.4-1.7-2.3-2.3c-0.9-0.7-2.1-1.1-3.3-1&#10;&#9;c-1.2,0-2.3,0.3-3.3,1c-0.9,0.6-1.7,1.4-2.3,2.3c-0.4,1.2-0.6,2.4-0.7,3.7L181.8,97z M188,108.9c-2.3,0.1-4.5-0.9-5.9-2.6&#10;&#9;c-1.7-1.8-2.7-4.1-2.6-6.6v-3.3c-0.1-1.6,0.4-3.3,1.3-4.6c0.7-1.3,1.8-2.5,3-3.3c1.3-0.7,2.8-1.1,4.3-1c1.7-0.1,3.3,0.3,4.6,1.3&#10;&#9;c1.3,0.8,2.4,1.9,3,3.3c1,1.7,1.4,3.7,1.3,5.6v0.7c-0.2,0.2-0.3,0.4-0.3,0.7h-14.9v0.3l0,0c0,1.3,0.3,2.5,1,3.6c0.4,1.1,1.1,2,2,2.6&#10;&#9;c1,0.7,2.1,1,3.3,1c1,0,2.1-0.2,3-0.7c0.6-0.3,1.1-0.6,1.6-1l1-1c0-0.3,0.2-0.5,0.3-0.7h2c0.3,0.3,0.3,0.3,0.3,0.7&#10;&#9;c-0.1,0.5-0.3,1-0.7,1.3c-0.4,0.7-0.9,1.3-1.6,1.7c-0.8,0.6-1.7,1.1-2.6,1.3C190.4,108.6,189.2,108.9,188,108.9L188,108.9z" class="st0"/>
<path d="M203.6,108.2h-0.6c-0.3-0.3-0.3-0.3-0.3-0.7v-26c0-0.3,0-0.3,0.3-0.7c0.2-0.2,0.4-0.3,0.6-0.3h1&#10;&#9;c0.3,0,0.3,0.3,0.7,0.3v0.3l9.3,17.5l8.8-17.5c0-0.2,0.1-0.3,0.3-0.3c0,0,0,0,0,0l0.3-0.3h1c0.3,0,0.5,0.2,0.7,0.3&#10;&#9;c0.3,0.3,0.3,0.3,0.3,0.7v26c0,0.3,0,0.3-0.3,0.7h-2v-22l-7.6,14.8l-0.7,0.7h-2.3l-0.7-0.7l-7.3-14.8v21.4c0,0.3-0.3,0.3-0.3,0.7&#10;&#9;L203.6,108.2L203.6,108.2z" class="st0"/>
<path d="M31.3,127l-0.3-0.3c4-11.2,6-17.2,6.3-17.5l18.5-18.5c-0.7,3-4.3,14.8-10.2,36.3H31.3z M39.9,101.6h-0.3&#10;&#9;c0.5-2.1,1.6-3.9,3.3-5.3c5.3-5.3,10.6-10.6,15.8-15.5c-0.2,1.5-0.9,2.9-2,4L39.9,101.6z M47.2,79.9L47.2,79.9&#10;&#9;c4-12.5,6.3-18.8,6.6-18.8H66C61.4,65.7,55.1,72,47.2,79.9z M43.5,91.1h-0.3c2-5.9,3-8.9,3.3-9.2l20.1-19.8c0.3,0,1,1.3,1.7,4.3&#10;&#9;L43.5,91.1z M61,80.5h-0.3c0.1-0.5-0.1-1-0.3-1.4v-0.3c2.9-3.1,6-6.1,9.2-8.9c0.3,0.4,0.4,0.9,0.3,1.3C66.7,74.9,63.7,77.9,61,80.5&#10;&#9;L61,80.5z M88.4,127H74.2c-0.3,0-1.3-3.3-3-9.2c-5.3-19.1-8.6-30.3-9.2-33.3l9.2-9.2h0.3c1.3,4,6.9,21.1,17.2,51.5L88.4,127z" class="st0"/>
</svg>